<?xml version="1.0" encoding="utf-8"?>
<!-- Generator: Adobe Illustrator 16.0.0, SVG Export Plug-In . SVG Version: 6.00 Build 0)  -->
<!DOCTYPE svg PUBLIC "-//W3C//DTD SVG 1.1//EN" "http://www.w3.org/Graphics/SVG/1.1/DTD/svg11.dtd">
<svg version="1.1" id="Layer_1" xmlns="http://www.w3.org/2000/svg" xmlns:xlink="http://www.w3.org/1999/xlink" x="0px" y="0px"
	 width="17.575px" height="18px" viewBox="0 0 17.575 18" enable-background="new 0 0 17.575 18" xml:space="preserve">
<path fill-rule="evenodd" clip-rule="evenodd" fill="#FFFFFF" d="M0.681,6.866c0.028,0.015,0.057,0.029,0.085,0.043
	C0.768,7.111,0.66,7.297,0.672,7.514c0.19-0.043,0.36-0.105,0.522-0.19c0.019-0.003,0.04-0.001,0.056-0.01
	c0.504-0.281,1.054-0.443,1.595-0.63c0.147-0.052,0.292-0.122,0.38-0.277C2.24,6.887,1.229,7.002,0.174,6.651
	c0.081-0.083,0.186-0.057,0.274-0.084C1.682,6.186,2.842,5.669,3.85,4.834c0.393-0.325,0.771-0.662,1.146-1.008
	C5.55,3.315,6.215,2.994,6.957,2.848C7.57,2.726,8.061,2.948,8.391,3.481C8.502,3.66,8.567,3.857,8.645,4.07
	c0.064-0.147,0.005-0.271-0.036-0.377C8.346,3.028,7.923,2.68,7.152,2.741C6.472,2.794,5.874,3.074,5.325,3.465
	c-0.308,0.218-0.586,0.472-0.86,0.729C4.367,4.287,4.262,4.336,4.129,4.353c-0.472,0.06-0.941,0.047-1.409-0.04
	c-0.114-0.021-0.227-0.03-0.342-0.021C2.349,4.277,2.319,4.263,2.29,4.248c-0.1-0.09-0.043-0.119,0.05-0.157
	c0.686-0.277,1.309-0.659,1.87-1.14C4.699,2.533,5.193,2.12,5.665,1.681c0.471-0.438,1.002-0.557,1.623-0.436
	c0.65,0.127,1.297,0.278,1.956,0.349c0.31,0.033,0.601,0.111,0.868,0.268c0.333,0.196,0.448,0.463,0.366,0.842
	c-0.077,0.352-0.226,0.677-0.375,1.001c-0.101,0.22-0.209,0.437-0.321,0.67c0.04-0.011,0.066-0.01,0.074-0.021
	c0.053-0.072,0.089-0.16,0.153-0.218c0.109-0.097,0.115,0.143,0.225,0.083c0.01-0.005,0.024-0.002,0.037-0.002
	c0.069,0.031,0.09,0.084,0.073,0.155C10.088,4.499,9.91,4.759,9.988,4.893c0.05-0.104,0.119-0.194,0.203-0.271
	c0.036-0.033,0.093-0.101,0.124-0.064c0.104,0.122,0.126,0.286,0.188,0.431c0.014,0.03,0.013,0.061-0.032,0.07
	c-0.331,0.071-0.343,0.33-0.348,0.593c-0.001,0.048,0.021,0.1-0.028,0.142C9.925,5.93,9.808,6.113,9.676,6.284
	C9.617,6.36,9.584,6.369,9.525,6.287C9.344,6.032,9.101,5.854,8.817,5.726c0.112-0.17-0.022-0.344,0.009-0.514
	c0.045-0.02,0.112,0.022,0.148-0.056C8.834,5.113,8.7,5.071,8.566,5.03C8.486,4.737,8.402,4.706,8.178,4.9
	C8.01,5.046,7.854,5.205,7.715,5.379c-0.258,0.323-0.427,0.686-0.5,1.093C7.128,6.478,7.131,6.557,7.104,6.61
	C6.842,7.137,6.535,7.624,5.973,7.887C5.288,8.206,4.575,8.365,3.818,8.289C3.52,8.26,3.223,8.226,2.899,8.191
	c0.305,0.12,0.603,0.147,0.899,0.181c0.688,0.079,1.363,0.054,2.005-0.248c0.051-0.023,0.105-0.068,0.161-0.039
	C6.044,8.128,5.896,8.18,5.963,8.24C6.48,7.841,6.84,7.319,7.165,6.766C7.102,7.409,6.908,8.003,6.589,8.559
	C6.494,8.724,6.393,8.84,6.175,8.813c-0.129-0.016-0.271,0.021-0.278,0.19C5.89,9.169,5.8,9.207,5.659,9.232
	C4.652,9.415,3.771,9.107,2.948,8.557C2.903,8.526,2.842,8.508,2.83,8.444c0.044-0.039,0.114,0.014,0.154-0.061
	C2.753,8.418,2.578,8.289,2.393,8.2C1.982,8.004,1.57,7.821,1.108,7.786C1.032,7.77,0.946,7.775,0.896,7.695
	c0.872,0.03,1.7-0.216,2.538-0.403C3.598,7.256,3.766,7.249,3.93,7.278c0.733,0.131,1.355-0.102,1.916-0.562
	C6.395,6.268,6.883,5.756,7.4,5.274c0.315-0.295,0.623-0.602,1.113-0.615C7.575,3.85,6.87,3.805,6.181,4.552
	C6.493,4.3,6.827,4.104,7.246,4.13c0.409,0.023,0.751,0.2,1.095,0.459C8,4.647,7.75,4.813,7.522,5.011
	C7.368,5.145,7.221,5.286,7.08,5.434C6.632,5.897,6.174,6.35,5.648,6.729c-0.438,0.315-0.931,0.453-1.457,0.42
	C3.685,7.117,3.204,7.2,2.721,7.333c-0.71,0.194-1.437,0.285-2.175,0.253C0.591,7.347,0.636,7.106,0.681,6.866z M5.225,5.709
	C5.236,5.696,5.248,5.684,5.26,5.671c0.014-0.014,0.027-0.026,0.041-0.039C5.585,5.361,5.77,5.016,6.012,4.713
	C5.84,4.852,5.704,5.022,5.594,5.208C5.49,5.382,5.339,5.452,5.154,5.468c-0.107,0.01-0.218,0.01-0.325-0.004
	C4.174,5.376,3.701,5.65,3.367,6.211c0.431-0.294,0.941-0.124,1.4-0.256C4.389,5.93,4.011,5.923,3.606,5.98
	c0.312-0.309,0.647-0.456,1.056-0.433C4.84,5.559,5.02,5.549,5.198,5.538c0.081-0.006,0.124,0.004,0.105,0.096
	c-0.014,0.014-0.027,0.027-0.04,0.04S5.239,5.699,5.228,5.711C5.214,5.725,5.201,5.738,5.188,5.752
	C5.16,5.762,5.131,5.771,5.103,5.78c-0.04,0.021-0.08,0.044-0.164,0.09C5.046,5.858,5.089,5.84,5.1,5.777
	c0.029-0.01,0.058-0.019,0.086-0.028C5.198,5.735,5.212,5.722,5.225,5.709z M6.922,1.449C7.09,1.479,7.259,1.502,7.425,1.54
	C8.107,1.698,8.791,1.854,9.42,2.184c0.227,0.118,0.336,0.304,0.355,0.549c0.012,0.146,0.006,0.293-0.015,0.439
	C9.71,3.528,9.593,3.866,9.477,4.204c0.29-0.517,0.495-1.057,0.402-1.664C9.853,2.372,9.737,2.261,9.578,2.172
	c-0.426-0.238-0.887-0.375-1.349-0.51C7.802,1.538,7.373,1.413,6.922,1.449z M3.379,8.496C3.741,8.604,4.107,8.677,4.48,8.713
	c0.24,0.023,0.482,0.034,0.722-0.023c0.27-0.064,0.616-0.284,0.703-0.448C5.248,8.681,5.102,8.646,4.555,8.628
	c-0.268-0.009-0.53-0.063-0.794-0.107C3.636,8.5,3.512,8.442,3.379,8.496z M6.038,4.661C6.042,4.665,6.046,4.669,6.05,4.673
	C6.054,4.669,6.058,4.664,6.061,4.66C6.055,4.657,6.049,4.653,6.043,4.649C6.042,4.653,6.04,4.657,6.038,4.661z"/>
<path fill-rule="evenodd" clip-rule="evenodd" fill="#FFFFFF" d="M2.29,4.248c0.029,0.015,0.059,0.029,0.088,0.043
	c0.074,0.05,0.081,0.097,0.025,0.177C2.073,4.944,1.805,5.455,1.59,5.994C1.568,6.048,1.55,6.1,1.487,6.122
	C1.309,6.185,1.14,6.274,0.95,6.308C1.5,4.69,2.429,3.337,3.774,2.28c1.376-1.079,2.94-1.668,4.689-1.734
	c0.894-0.035,1.768,0.07,2.633,0.344c0.609,0.192,1.187,0.436,1.743,0.736c0.656,0.354,1.207,0.844,1.741,1.357
	c0.626,0.602,1.117,1.302,1.513,2.068c0.744,1.438,1.053,2.968,0.932,4.585c-0.098,1.313-0.482,2.526-1.131,3.675
	c-0.483,0.857-1.141,1.554-1.847,2.214c-0.312,0.291-0.669,0.531-1.036,0.752c-1.768,1.059-3.67,1.424-5.695,1.051
	c-1.905-0.351-3.484-1.293-4.744-2.765c-1.327-1.551-1.979-3.362-2.05-5.393C0.505,8.667,0.574,8.169,0.615,7.669
	C0.668,7.646,0.719,7.668,0.77,7.675c0.035,0.043,0.077,0.049,0.124,0.021l0.003-0.001c0.05,0.08,0.136,0.074,0.212,0.091
	C1.104,7.805,1.098,7.823,1.096,7.842c-0.297,2.469,0.309,4.67,1.974,6.542c0.667,0.75,1.437,1.376,2.36,1.797
	c0.386,0.176,0.775,0.339,1.182,0.464c0.512,0.158,1.04,0.274,1.566,0.308c0.752,0.047,1.509,0.005,2.252-0.171
	c0.61-0.145,1.206-0.332,1.758-0.629c2.763-1.487,4.231-3.818,4.351-6.938c0.092-2.372-0.764-4.418-2.493-6.056
	c-1.596-1.513-3.515-2.212-5.717-2.092c-0.495,0.026-0.985,0.09-1.481,0c-0.331-0.06-0.662,0.052-0.888,0.262
	c-0.49,0.455-1.075,0.764-1.611,1.145c-0.233,0.165-0.479,0.32-0.677,0.522C3.247,3.428,2.853,3.89,2.248,4.081
	C2.197,4.097,2.154,4.11,2.161,4.178C2.171,4.267,2.233,4.25,2.29,4.248z"/>
<path fill-rule="evenodd" clip-rule="evenodd" fill="#FFFFFF" d="M0.615,7.669c-0.041,0.5-0.11,0.998-0.093,1.502
	c0.071,2.03,0.723,3.842,2.05,5.393c1.26,1.472,2.839,2.414,4.744,2.765c2.025,0.373,3.928,0.008,5.695-1.051
	c0.367-0.221,0.725-0.461,1.036-0.752c0.706-0.66,1.363-1.356,1.847-2.214c0.648-1.148,1.033-2.362,1.131-3.675
	c0.121-1.617-0.188-3.146-0.932-4.585c-0.396-0.767-0.887-1.467-1.513-2.068C14.047,2.47,13.496,1.98,12.84,1.626
	c-0.557-0.301-1.134-0.544-1.743-0.736c-0.865-0.273-1.739-0.379-2.633-0.344C6.715,0.612,5.15,1.201,3.774,2.28
	C2.429,3.337,1.5,4.69,0.95,6.308C0.926,6.321,0.908,6.313,0.896,6.289c0-0.03-0.009-0.063,0.001-0.091
	c0.543-1.598,1.478-2.92,2.794-3.976c1.082-0.867,2.316-1.397,3.665-1.681C7.742,0.461,7.742,0.46,7.761,0.096
	c0-0.006,0.005-0.012,0.008-0.018c0.195-0.069,0.401-0.06,0.603-0.069c4.607-0.205,8.372,3.15,9.064,7.433
	c0.5,3.098-0.339,5.816-2.564,8.042c-1.803,1.804-4.024,2.616-6.577,2.507c-0.114-0.005-0.228-0.026-0.341-0.04
	c-0.057-0.133-0.092-0.263,0.087-0.387c-2.448-0.318-4.415-1.414-5.875-3.36c-1.46-1.945-1.963-4.144-1.633-6.543
	C0.563,7.64,0.59,7.646,0.615,7.669z"/>
<path fill-rule="evenodd" clip-rule="evenodd" fill="#FFFFFF" d="M0.532,7.66c-0.33,2.399,0.173,4.598,1.633,6.543
	c1.46,1.946,3.427,3.042,5.875,3.36c-0.179,0.124-0.144,0.254-0.087,0.387c-1.401-0.13-2.688-0.588-3.871-1.35
	c-0.737-0.475-1.389-1.051-1.952-1.719c-0.618-0.732-1.109-1.549-1.466-2.442c-0.713-1.783-0.842-3.612-0.437-5.484
	c0.015-0.067,0.023-0.138,0.037-0.222c0.14,0.045,0.277,0.089,0.416,0.133c-0.045,0.24-0.09,0.48-0.135,0.72
	C0.516,7.606,0.52,7.632,0.532,7.66z"/>
<path fill-rule="evenodd" clip-rule="evenodd" fill="#FFFFFF" d="M7.769,0.078C7.766,0.084,7.761,0.09,7.761,0.096
	C7.742,0.46,7.742,0.461,7.356,0.542C6.008,0.825,4.773,1.355,3.691,2.223C2.375,3.278,1.44,4.601,0.897,6.198
	c-0.01,0.027-0.001,0.061-0.001,0.091C0.763,6.453,0.549,6.423,0.384,6.519C0.329,6.428,0.385,6.359,0.405,6.294
	c0.368-1.181,0.942-2.248,1.746-3.191c0.929-1.089,2.048-1.92,3.377-2.448C6.04,0.451,6.556,0.249,7.115,0.188
	C7.332,0.163,7.546,0.091,7.769,0.078z"/>
<path fill-rule="evenodd" clip-rule="evenodd" fill="#FFFFFF" d="M1.194,7.323c-0.162,0.085-0.332,0.147-0.522,0.19
	C0.66,7.297,0.768,7.111,0.766,6.909c0.143,0.018,0.285,0.038,0.428,0.053C1.27,6.97,1.262,7.009,1.247,7.065
	C1.225,7.149,1.211,7.237,1.194,7.323z"/>
<path fill-rule="evenodd" clip-rule="evenodd" fill="#FFFFFF" d="M4.004,4.573C3.82,4.76,3.654,4.91,3.448,5.011
	C3.606,4.846,3.635,4.527,4.004,4.573z"/>
<path fill-rule="evenodd" clip-rule="evenodd" fill="#FFFFFF" d="M7.712,7.235C7.524,7.321,7.467,7.532,7.272,7.671
	c0.033-0.32,0.026-0.617,0.008-0.914C7.274,6.659,7.291,6.554,7.215,6.472c0.073-0.407,0.242-0.77,0.5-1.093
	C7.854,5.205,8.01,5.046,8.178,4.9c0.225-0.194,0.309-0.163,0.389,0.13c-0.386-0.02-0.628,0.195-0.807,0.73
	c0.148-0.055,0.195-0.188,0.268-0.288c0.187-0.259,0.434-0.367,0.799-0.261C8.795,5.382,8.93,5.556,8.817,5.726
	C8.793,5.72,8.769,5.714,8.744,5.71C8.1,5.609,7.951,6.02,7.955,6.495c0.001,0.146,0.084,0.296-0.02,0.438L7.94,6.93
	C7.902,6.944,7.861,6.959,7.901,7.012l0.003-0.004C7.803,7.033,7.751,7.099,7.748,7.203l0.003-0.005
	c-0.054-0.025-0.06-0.003-0.043,0.043L7.712,7.235z"/>
<path fill-rule="evenodd" clip-rule="evenodd" fill="#FFFFFF" d="M0.77,7.675c0.045-0.011,0.09-0.028,0.124,0.021
	C0.847,7.724,0.805,7.718,0.77,7.675z"/>
<path fill-rule="evenodd" clip-rule="evenodd" fill="#FFFFFF" d="M8.013,7.6c0.021-0.031,0.039-0.063,0.062-0.093
	C8.102,7.472,8.132,7.44,8.175,7.392c0.146,0.25,0.289,0.479,0.482,0.671C8.847,8.25,9.065,8.364,9.338,8.363
	c0.387-0.001,0.635-0.228,0.668-0.614c0.021-0.246-0.019-0.482-0.104-0.714c-0.067-0.186,0.133-0.52,0.321-0.578
	c0.147-0.045,0.196,0.078,0.287,0.13l-0.004-0.004c0.031,0.158,0.188,0.212,0.28,0.322c-0.089,0.088-0.245,0.126-0.191,0.31
	c0.131-0.103,0.254-0.206,0.397-0.283c0.135-0.073,0.219-0.053,0.284,0.096c0.141,0.315,0.188,0.623-0.029,0.924
	c-0.035,0.05-0.048,0.09,0.015,0.124c0.061,0.033,0.095,0.002,0.123-0.048c0.103-0.181,0.131-0.378,0.086-0.574
	c-0.043-0.186,0.129-0.196,0.202-0.28c0.062-0.071,0.127,0.019,0.178,0.055c0.322,0.224,0.473,0.547,0.499,0.927
	c0.027,0.4,0.028,0.803,0.054,1.203c0.04,0.628,0.229,1.227,0.377,1.833c0.028,0.117,0.054,0.236,0.069,0.356
	c0.051,0.405-0.087,0.628-0.473,0.758c-0.169,0.057-0.345,0.09-0.525,0.069c-0.201-0.096-0.397-0.203-0.571-0.341
	c-0.305-0.24-0.602-0.489-0.9-0.736c-0.476-0.394-0.984-0.748-1.404-1.204C8.648,9.738,8.38,9.357,8.351,8.841
	C8.327,8.409,8.216,7.989,8.013,7.6z M9.512,8.884C9.294,9.06,9.137,9.258,9.024,9.487C8.964,9.611,9.011,9.749,9.128,9.799
	c0.105,0.045,0.115-0.097,0.139-0.161c0.052-0.141,0.114-0.122,0.225-0.065C9.92,9.794,10.36,9.985,10.857,9.99
	c0.491,0.005,0.843-0.206,1.046-0.657c0.155-0.347,0.2-0.708,0.155-1.083c-0.006-0.048-0.052-0.144,0.031-0.139
	c0.153,0.008,0.095-0.075,0.077-0.138c-0.05-0.179-0.141-0.225-0.366-0.194c0.088,0.094,0.104,0.11,0.124,0.196
	c0.119,0.497,0.081,0.977-0.188,1.42c-0.201,0.33-0.499,0.501-0.891,0.498C10.431,9.89,10.059,9.741,9.708,9.54
	c-0.383-0.221-0.445-0.173-0.19-0.602C9.52,8.935,9.517,8.927,9.512,8.884z"/>
<path fill-rule="evenodd" clip-rule="evenodd" fill="#FFFFFF" d="M8.013,7.6c0.203,0.39,0.314,0.81,0.338,1.241
	c0.029,0.517,0.298,0.897,0.626,1.252c0.42,0.456,0.929,0.811,1.404,1.204c0.299,0.247,0.596,0.496,0.9,0.736
	c0.174,0.138,0.37,0.245,0.571,0.341c-0.605,0.051-1.21,0.068-1.811-0.045c-0.269-0.051-0.501-0.172-0.694-0.373
	c-0.354-0.37-0.652-0.78-0.91-1.223c-0.079-0.135-0.092-0.292-0.145-0.446c-0.027,0.024-0.042,0.03-0.042,0.038
	c-0.043,0.492-0.043,0.484-0.583,0.505c-0.381,0.015-0.732-0.012-1.009-0.331c-0.334-0.387-0.666-0.764-0.627-1.324
	c0.015-0.214,0.05-0.258,0.263-0.258C6.563,8.918,6.819,8.964,7.068,9.07c0.232,0.099,0.246,0.083,0.294-0.147
	C7.386,8.811,7.419,8.7,7.439,8.587C7.511,8.188,7.716,7.867,8.013,7.6z M6.877,10.331c-0.013-0.032-0.039-0.054-0.067-0.028
	c-0.037,0.033,0.01,0.045,0.028,0.063c0.166,0.255,0.563,0.315,0.846,0.129c0.069-0.05,0.211,0.006,0.214-0.137
	c0.003-0.19-0.076-0.392-0.236-0.443C7.518,9.868,7.448,9.762,7.336,9.7c-0.01-0.107-0.054-0.194-0.147-0.252
	c-0.231-0.141-0.48-0.146-0.736-0.093C6.368,9.374,6.311,9.417,6.346,9.517C6.43,9.76,6.552,9.982,6.72,10.231
	c0.016-0.225-0.102-0.357-0.145-0.513C6.56,9.664,6.512,9.584,6.615,9.569c0.078-0.012,0.188-0.061,0.214,0.073
	c0.035,0.183,0.143,0.322,0.253,0.462c-0.034,0.098-0.098,0.175-0.169,0.246C6.901,10.344,6.889,10.338,6.877,10.331z M7.714,8.361
	c-0.242,0.323-0.35,0.974-0.188,1.163C7.55,9.116,7.635,8.739,7.714,8.361z M7.776,9.071c-0.117,0.291-0.132,0.433-0.05,0.588
	C7.73,9.439,7.752,9.254,7.776,9.071z"/>
<path fill-rule="evenodd" clip-rule="evenodd" fill="#FFFFFF" d="M8.83,16.444c-0.226-0.021-0.44-0.043-0.656-0.059
	c-0.071-0.006-0.102-0.018-0.081-0.103c0.131-0.549,0.297-1.084,0.616-1.556c0.368-0.543,0.772-0.646,1.367-0.364
	c0.399,0.188,0.699,0.487,0.941,0.847c0.128,0.19,0.232,0.397,0.361,0.587c0.099,0.146,0.05,0.194-0.099,0.244
	c-0.662,0.225-1.338,0.371-2.04,0.379C9.101,16.422,8.959,16.409,8.83,16.444z"/>
<path fill-rule="evenodd" clip-rule="evenodd" fill="#FFFFFF" d="M11.856,13.864c0.118,0.098,0.188,0.218,0.183,0.377
	c-0.002,0.034-0.017,0.084,0.037,0.093c0.057,0.01,0.077-0.04,0.088-0.081c0.049-0.181-0.001-0.338-0.123-0.476
	c-0.071-0.081-0.152-0.152-0.277-0.223c0.269-0.048,0.5-0.091,0.73,0.025c0.274,0.139,0.586,0.213,0.804,0.453
	c0.005,0.005,0.029-0.009,0.044-0.014l-0.002-0.004c-0.047,0.056-0.011,0.071,0.039,0.079l-0.002-0.002
	c-0.01,0.036,0.001,0.054,0.041,0.041l-0.002-0.002c-0.003,0.08,0.017,0.138,0.117,0.116l-0.003-0.003
	c0,0.015-0.001,0.029-0.001,0.044c0.014-0.001,0.028-0.002,0.042-0.003l-0.002-0.003c-0.047,0.057-0.013,0.072,0.039,0.08
	l-0.002-0.002c-0.015,0.048-0.021,0.093-0.089,0.104c-0.074,0.011-0.076,0.069-0.029,0.11c0.097,0.085,0.04,0.133-0.028,0.191
	c-0.336,0.284-0.696,0.534-1.074,0.76c-0.076,0.046-0.129,0.057-0.189-0.028c-0.279-0.388-0.607-0.734-0.97-1.082
	c0.229-0.013,0.438,0.073,0.646-0.03c-0.139-0.011-0.278-0.036-0.416-0.03c-0.33,0.016-0.546-0.206-0.796-0.359
	c-0.091-0.233-0.262-0.419-0.378-0.638c-0.15-0.284-0.352-0.544-0.428-0.866c0.215,0.103,0.402,0.26,0.644,0.309
	c0.04,0.009,0.072,0.068,0.104,0.107c0.179,0.223,0.344,0.458,0.556,0.652l-0.003-0.004c0.023,0.038,0.047,0.077,0.07,0.115
	c0.041,0.029,0.096,0.05,0.121,0.089C11.483,13.971,11.661,13.953,11.856,13.864z"/>
<path fill-rule="evenodd" clip-rule="evenodd" fill="#FFFFFF" d="M8.654,7.92C8.468,7.763,8.36,7.578,8.285,7.39
	C8.147,7.043,8.029,6.686,8.049,6.302c0.023-0.443,0.307-0.624,0.72-0.459c0.041,0.017,0.082,0.036,0.12,0.059
	c0.264,0.15,0.268,0.165,0.14,0.435C8.794,6.826,8.684,7.347,8.654,7.92z"/>
<path fill-rule="evenodd" clip-rule="evenodd" fill="#FFFFFF" d="M12.651,13.259c0.683-0.178,1.328-0.264,1.987-0.149
	c0.211,0.036,0.212,0.04,0.094,0.211c-0.188,0.272-0.391,0.531-0.608,0.78c-0.06,0.068-0.128,0.08-0.173,0.014
	c-0.284-0.419-0.742-0.577-1.161-0.794C12.756,13.304,12.721,13.29,12.651,13.259z"/>
<path fill-rule="evenodd" clip-rule="evenodd" fill="#FFFFFF" d="M9.855,12.492c0.076,0.322,0.277,0.582,0.428,0.866
	c0.116,0.219,0.287,0.404,0.378,0.638c-0.19-0.076-0.386-0.136-0.592-0.132c-0.11,0.002-0.15-0.039-0.186-0.139
	c-0.322-0.918-0.854-1.715-1.439-2.481c-0.011-0.014-0.03-0.02-0.046-0.029c0,0,0.004,0.004,0.005,0.004
	c-0.027-0.083-0.076-0.149-0.154-0.191l0.004,0.004c-0.021-0.107,0.084-0.133,0.137-0.182c0.021-0.019,0.072,0.074,0.104,0.12
	c0.146,0.216,0.295,0.43,0.437,0.648c0.222,0.345,0.543,0.583,0.861,0.825c0.002,0.036,0.021,0.05,0.057,0.044L9.855,12.492z"/>
<path fill-rule="evenodd" clip-rule="evenodd" fill="#FFFFFF" d="M9.594,6.795c0.232,0.351,0.313,0.729,0.184,1.136
	C9.713,8.135,9.57,8.271,9.353,8.29C9.129,8.311,8.948,8.2,8.794,8.049c-0.023-0.021-0.033-0.07-0.03-0.104
	c0.018-0.208,0.014-0.42,0.109-0.613c0.052-0.022,0.113-0.008,0.16-0.053C9.212,7.108,9.429,6.981,9.594,6.795z"/>
<path fill-rule="evenodd" clip-rule="evenodd" fill="#FFFFFF" d="M10.511,6.587c-0.059-0.21-0.067-0.438-0.205-0.62
	c-0.132-0.175-0.117-0.369-0.084-0.565c0.025-0.149,0.121-0.236,0.271-0.254c0.171-0.021,0.311,0.048,0.423,0.173
	c0.043,0.049,0.003,0.097-0.019,0.141c-0.167,0.338-0.188,0.698-0.172,1.066c0.003,0.05,0.001,0.101,0.001,0.152
	c-0.104,0.033-0.109-0.15-0.219-0.097L10.511,6.587z"/>
<path fill-rule="evenodd" clip-rule="evenodd" fill="#FFFFFF" d="M11.322,5.878c0.183,0.28,0.287,0.588,0.321,0.92
	c0.01,0.09-0.004,0.178-0.038,0.261c-0.027,0.066-0.063,0.143-0.135,0.146c-0.075,0.005-0.075-0.088-0.102-0.14
	c-0.108-0.215-0.15-0.327-0.41-0.232c-0.081,0.029-0.107-0.015-0.106-0.082c0-0.088,0.009-0.177,0.014-0.265
	C11.097,6.343,11.169,6.08,11.322,5.878z"/>
<path fill-rule="evenodd" clip-rule="evenodd" fill="#FFFFFF" d="M7.936,6.933c0.135,0.038,0.22,0.271,0.129,0.375
	C7.646,7.787,7.229,8.269,6.86,8.791c-0.056,0.08-0.122,0.062-0.183,0.025c-0.09-0.055,0.003-0.101,0.025-0.135
	c0.285-0.438,0.591-0.861,0.91-1.275c0.04-0.051,0.113-0.087,0.099-0.171L7.708,7.241c0.04,0.011,0.047-0.011,0.043-0.043
	L7.748,7.203C7.828,7.16,7.885,7.1,7.904,7.008L7.901,7.012C7.953,7.003,7.982,6.983,7.94,6.93L7.936,6.933z"/>
<path fill-rule="evenodd" clip-rule="evenodd" fill="#FFFFFF" d="M5.973,9.811c0.114,0.137,0.146,0.267,0.136,0.432
	c-0.021,0.336,0.045,0.67,0.088,1.004c0.008,0.063,0.018,0.127,0.021,0.189c0.005,0.108-0.072,0.171-0.155,0.191
	c-0.098,0.024-0.095-0.082-0.111-0.142c-0.117-0.42-0.14-0.852-0.133-1.284C5.82,10.06,5.866,9.926,5.973,9.811z"/>
<path fill-rule="evenodd" clip-rule="evenodd" fill="#FFFFFF" d="M9.594,6.795C9.429,6.981,9.212,7.108,9.033,7.278
	c-0.047,0.045-0.108,0.03-0.16,0.053c0.048-0.246,0.183-0.45,0.325-0.648c0.14-0.193,0.187-0.19,0.33-0.002
	C9.555,6.716,9.572,6.757,9.594,6.795z"/>
<path fill-rule="evenodd" clip-rule="evenodd" fill="#FFFFFF" d="M10.385,6.319c-0.328-0.079-0.407,0.195-0.57,0.334
	C9.666,6.509,9.665,6.378,9.81,6.234c0.088-0.089,0.149-0.202,0.244-0.289c0.062-0.057,0.102-0.068,0.144,0.014
	C10.254,6.07,10.313,6.181,10.385,6.319z"/>
<path fill-rule="evenodd" clip-rule="evenodd" fill="#FFFFFF" d="M11.322,5.878c-0.153,0.202-0.226,0.465-0.456,0.608
	c0.01-0.211,0.049-0.416,0.139-0.607c0.035-0.075,0.047-0.198,0.153-0.193C11.252,5.69,11.286,5.797,11.322,5.878z"/>
<path fill-rule="evenodd" clip-rule="evenodd" fill="#FFFFFF" d="M13.342,14.02c-0.007-0.041-0.013-0.083-0.024-0.155
	c0.239,0.094,0.396,0.27,0.575,0.414c0.035,0.028,0.016,0.054-0.01,0.077c-0.032,0.03-0.059,0.058-0.114,0.053
	c-0.06-0.005-0.089-0.104-0.162-0.047l0.002,0.002c0.04-0.053,0.009-0.07-0.039-0.08l0.002,0.003
	c0.006-0.032-0.002-0.053-0.041-0.041l0.003,0.003c-0.005-0.074-0.021-0.136-0.117-0.116l0.002,0.002
	c0.02-0.048,0.009-0.063-0.041-0.041l0.002,0.002c0.041-0.053,0.011-0.071-0.039-0.079L13.342,14.02z"/>
<path fill-rule="evenodd" clip-rule="evenodd" fill="#FFFFFF" d="M11.856,13.864c-0.195,0.089-0.373,0.106-0.51-0.104
	c-0.025-0.039-0.08-0.06-0.121-0.089c0.007-0.03,0.014-0.062,0.021-0.093c0.012,0.006,0.021,0.003,0.026-0.009
	C11.517,13.569,11.708,13.675,11.856,13.864z"/>
<path fill-rule="evenodd" clip-rule="evenodd" fill="#FFFFFF" d="M7.329,8.393C7.278,8.58,7.233,8.737,7.195,8.896
	c-0.018,0.07-0.032,0.122-0.12,0.066C7.019,8.926,6.935,8.914,7.004,8.816C7.101,8.68,7.187,8.534,7.329,8.393z"/>
<path fill-rule="evenodd" clip-rule="evenodd" fill="#FFFFFF" d="M9.848,12.487c-0.035,0.006-0.055-0.008-0.057-0.044
	C9.822,12.442,9.842,12.456,9.848,12.487z"/>
<path fill-rule="evenodd" clip-rule="evenodd" fill="#FFFFFF" d="M7.336,9.7c0.112,0.062,0.182,0.168,0.325,0.214
	c0.16,0.052,0.239,0.253,0.236,0.443c-0.003,0.143-0.145,0.087-0.214,0.137c-0.275,0.049-0.521-0.059-0.771-0.144
	c0.071-0.071,0.135-0.148,0.169-0.246c0.041,0.007,0.073,0.075,0.115,0.035c0.045-0.041-0.014-0.077-0.029-0.114
	C7.135,9.95,7.086,9.878,7.069,9.8c-0.021-0.096-0.15-0.223-0.033-0.285c0.136-0.071,0.173,0.103,0.231,0.191
	C7.302,9.758,7.318,9.777,7.336,9.7z"/>
</svg>
